<svg width="100" height="86" viewBox="0 0 100 86" fill="none" xmlns="http://www.w3.org/2000/svg">
<g clip-path="url(#clip0_4_3344)">
<path fill-rule="evenodd" clip-rule="evenodd" d="M42.5412 3.17734C24.5406 3.17734 6.30189 14.3927 1.61457 30.8938C6.67974 13.0626 23.0829 0 42.5412 0C66.0358 0 85.0821 19.0463 85.0821 42.5412C85.0821 66.0358 66.0358 85.0821 42.5412 85.0821C19.0463 85.0821 0 66.0358 0 42.5412C0 64.2811 20.8011 79.4335 42.5412 79.4335C64.2812 79.4335 80.4927 64.2811 80.4927 42.5412C80.4927 20.8011 64.2812 3.17734 42.5412 3.17734Z" fill="url(#paint0_linear_4_3344)"/>
<path d="M21.5619 44.629C20.8219 45.4453 19.8523 46.0322 18.602 46.0322C16.8668 46.0322 15.2848 44.782 15.2848 42.7405C15.2848 40.7248 16.8413 39.4743 18.4744 39.4743C19.5206 39.4743 20.4647 39.7552 21.3323 40.5973L22.7102 38.2753C21.6385 37.2034 19.9799 36.7188 18.0916 36.7188C14.5959 36.7188 12.1462 39.398 12.1462 42.7405C12.1462 46.3641 14.6469 48.7625 18.3723 48.7625C20.2351 48.7625 21.9702 48.0737 22.9398 46.7721L21.5619 44.629Z" fill="#111A58"/>
<path d="M33.1288 48.482H36.0633V36.9993H25.2952V48.482H28.2296V39.7552H33.1288V48.482Z" fill="#111A58"/>
<path d="M50.3987 36.9993H47.0559L44.9891 43.251C44.785 43.8379 44.6827 44.3993 44.5808 44.9351C44.4022 44.3737 44.2492 43.8379 44.0195 43.2766L41.3403 36.9993H37.8188L43.1262 48.482L42.8712 49.0942C42.3863 50.2935 41.8505 50.8804 41.1105 50.8804C40.6511 50.8804 40.2176 50.6507 39.9112 50.4721L38.9671 52.6922C39.6307 53.1769 40.3962 53.5852 41.4422 53.5852C43.1262 53.5852 44.1981 52.59 45.8821 48.482L50.3987 36.9993Z" fill="#111A58"/>
<path d="M51.0579 39.9338H54.8345V48.482H57.7687V39.9338H61.5199V36.9993H51.0579V39.9338Z" fill="#111A58"/>
<path d="M71.5815 48.482H74.5156V36.9993H71.5815V41.3373H66.5546V36.9993H63.6201V48.482H66.5546V44.0929H71.5815V48.482Z" fill="#111A58"/>
<path d="M99.4588 36.9993H95.7588L91.6253 42.6897L96.1671 48.482H99.9946L95.0445 42.46L99.4588 36.9993ZM88.5889 48.482H91.5231V36.9993H88.5889V48.482Z" fill="#111A58"/>
</g>
<defs>
<linearGradient id="paint0_linear_4_3344" x1="42.5412" y1="-4.38746e-06" x2="-31.0674" y2="73.6086" gradientUnits="userSpaceOnUse">
<stop stop-color="#111A58"/>
<stop offset="1" stop-color="#21111A" stop-opacity="0"/>
</linearGradient>
<clipPath id="clip0_4_3344">
<rect width="100" height="85.3035" fill="white"/>
</clipPath>
</defs>
</svg>
